<?xml version="1.0" encoding="UTF-8"?>
<svg width="16px" height="16px" viewBox="0 0 16 16" version="1.1" xmlns="http://www.w3.org/2000/svg" xmlns:xlink="http://www.w3.org/1999/xlink">
    <title>1356A86E-F80B-411F-8293-BB3C50D69A84</title>
    <g id="Page-1" stroke="none" stroke-width="1" fill="none" fill-rule="evenodd">
        <g id="Dashboard-(User---Close-Deal-Form)" transform="translate(-83.000000, -926.000000)">
            <g id="Icon-/-Deals-/-User-/-Discord" transform="translate(83.000000, 926.000000)">
                <polygon id="Path" points="0 0 16 0 16 16 0 16"></polygon>
                <g id="Discord-Logo-Black" transform="translate(4.000000, 3.000000)" fill="#4B4B4B" fill-rule="nonzero">
                    <path d="M3.53778559,5 C3.23725835,5 3,5.22522523 3,5.5 C3,5.77477477 3.24253076,6 3.53778559,6 C3.83831283,6 4.07557118,5.77477477 4.07557118,5.5 C4.08084359,5.22522523 3.83831283,5 3.53778559,5 Z M5.46221441,5 C5.16168717,5 4.92442882,5.22522523 4.92442882,5.5 C4.92442882,5.77477477 5.16695958,6 5.46221441,6 C5.76274165,6 6,5.77477477 6,5.5 C6,5.22522523 5.76274165,5 5.46221441,5 Z" id="Shape"></path>
                    <path d="M7.94571429,0 L1.05428571,0 C0.473142857,0 0,0.506 0,1.133 L0,8.569 C0,9.196 0.473142857,9.702 1.05428571,9.702 L6.88628571,9.702 L6.61371429,8.6845 L7.272,9.339 L7.89428571,9.955 L9,11 L9,1.133 C9,0.506 8.52685714,0 7.94571429,0 Z M5.96057143,7.183 C5.96057143,7.183 5.77542857,6.9465 5.62114286,6.7375 C6.29485714,6.534 6.552,6.083 6.552,6.083 C6.34114286,6.2315 6.14057143,6.336 5.96057143,6.4075 C5.70342857,6.523 5.45657143,6.6 5.21485714,6.644 C4.72114286,6.743 4.26857143,6.7155 3.88285714,6.6385 C3.58971429,6.578 3.33771429,6.49 3.12685714,6.402 C3.00857143,6.3525 2.88,6.292 2.75142857,6.215 C2.736,6.204 2.72057143,6.1985 2.70514286,6.1875 C2.69485714,6.182 2.68971429,6.1765 2.68457143,6.171 C2.592,6.116 2.54057143,6.0775 2.54057143,6.0775 C2.54057143,6.0775 2.78742857,6.5175 3.44057143,6.7265 C3.28628571,6.9355 3.096,7.183 3.096,7.183 C1.95942857,7.1445 1.52742857,6.347 1.52742857,6.347 C1.52742857,4.576 2.268,3.1405 2.268,3.1405 C3.00857143,2.5465 3.71314286,2.56295429 3.71314286,2.56295429 L3.76457143,2.629 C2.83885714,2.915 2.412,3.3495 2.412,3.3495 C2.412,3.3495 2.52514286,3.2835 2.71542857,3.19 C3.26571429,2.9315 3.70285714,2.86 3.88285714,2.8435 C3.91371429,2.838 3.93942857,2.8325 3.97028571,2.8325 C4.284,2.7885 4.63885714,2.7775 5.00914286,2.8215 C5.49771429,2.882 6.02228571,3.036 6.55714286,3.3495 C6.55714286,3.3495 6.15085714,2.937 5.27657143,2.651 L5.34857143,2.56295429 C5.34857143,2.56295429 6.05314286,2.5465 6.79371429,3.1405 C6.79371429,3.1405 7.53428571,4.576 7.53428571,6.347 C7.53428571,6.347 7.09714286,7.1445 5.96057143,7.183 L5.96057143,7.183 Z" id="Shape"></path>
                </g>
            </g>
        </g>
    </g>
</svg>