<?xml version="1.0" encoding="UTF-8"?>
<svg width="16px" height="16px" viewBox="0 0 16 16" version="1.1" xmlns="http://www.w3.org/2000/svg" xmlns:xlink="http://www.w3.org/1999/xlink">
    <title>AB5F329B-F9A6-4411-9F1D-346FE93479EB</title>
    <g id="Page-1" stroke="none" stroke-width="1" fill="none" fill-rule="evenodd">
        <g id="Dashboard-(Admin---Manage-/-Update)" transform="translate(-161.000000, -926.000000)">
            <g id="Group-9" transform="translate(83.000000, 926.000000)">
                <g id="Icon-/-Deals-/-User-/-Instagram" transform="translate(78.000000, 0.000000)">
                    <polygon id="Path" points="0 0 16 0 16 16 0 16"></polygon>
                    <path d="M12.5736028,2 L3.42639719,2 C2.63857295,2 2,2.63693642 2,3.42312413 L2,12.5768759 C2,13.3627363 2.63857295,14 3.42639719,14 L12.5736028,14 C13.3614271,14 14,13.3627363 14,12.5768759 L14,3.42312413 C14,2.63693642 13.3614271,2 12.5736028,2 L12.5736028,2 Z M10.6251534,3.87480566 C10.6251534,3.66794861 10.7930611,3.50004091 10.9999182,3.50004091 L12.124867,3.50004091 C12.3320514,3.50004091 12.4999591,3.66794861 12.4999591,3.87480566 L12.4999591,5.00008183 C12.4999591,5.20693888 12.3320514,5.37484658 12.124867,5.37484658 L10.9999182,5.37484658 C10.7930611,5.37484658 10.6251534,5.20693888 10.6251534,5.00008183 L10.6251534,3.87480566 L10.6251534,3.87480566 Z M8.01391048,5.71164389 C9.28843793,5.71164389 10.3217413,6.74265608 10.3217413,8.01391048 C10.3217413,9.28549219 9.28843793,10.3161771 8.01391048,10.3161771 C6.73971033,10.3161771 5.706407,9.28549219 5.706407,8.01391048 C5.706407,6.74265608 6.73971033,5.71164389 8.01391048,5.71164389 L8.01391048,5.71164389 Z M12.8750511,12.4999591 C12.8750511,12.7068161 12.7071434,12.8750511 12.4999591,12.8750511 L3.50004091,12.8750511 C3.29285656,12.8750511 3.12494886,12.7068161 3.12494886,12.4999591 L3.12494886,6.87488749 L4.62498977,6.87488749 C4.42958841,7.15604288 4.36347271,7.68071353 4.36347271,8.01391048 C4.36347271,10.0219295 6.00130922,11.6558383 8.01391048,11.6558383 C10.026839,11.6558383 11.6646756,10.0219295 11.6646756,8.01391048 C11.6646756,7.68071353 11.6172163,7.16422551 11.3750102,6.87488749 L12.8750511,6.87488749 L12.8750511,12.4999591 L12.8750511,12.4999591 Z" id="Instagram" fill="#4B4B4B"></path>
                </g>
            </g>
        </g>
    </g>
</svg>