<?xml version="1.0" encoding="UTF-8"?>
<svg width="24px" height="24px" viewBox="0 0 24 24" version="1.1" xmlns="http://www.w3.org/2000/svg" xmlns:xlink="http://www.w3.org/1999/xlink">
    <title>F93ADE25-94DE-4D96-AEE2-4AD2A161CA3D</title>
    <g id="Page-1" stroke="none" stroke-width="1" fill="none" fill-rule="evenodd">
        <g id="Dashboard-(Admin)" transform="translate(-1188.000000, -398.000000)">
            <g id="Deal-/-Single-Template-(Admin-3)" transform="translate(280.000000, 360.000000)">
                <g id="Icon-/-Deals-/-User-/-Paused-(Disabled)" transform="translate(908.000000, 38.000000)">
                    <polygon id="Path" points="0 0 24 0 24 24 0 24"></polygon>
                    <path d="M12,2 C6.48,2 2,6.48 2,12 C2,17.52 6.48,22 12,22 C17.52,22 22,17.52 22,12 C22,6.48 17.52,2 12,2 Z M11,16 L9,16 L9,8 L11,8 L11,16 Z M15,16 L13,16 L13,8 L15,8 L15,16 Z" id="Shape" fill="#323232" fill-rule="nonzero"></path>
                </g>
            </g>
        </g>
    </g>
</svg>