<svg width="16" height="16" viewBox="0 0 16 16" fill="none" xmlns="http://www.w3.org/2000/svg">
<path fill-rule="evenodd" clip-rule="evenodd" d="M5.29312 12.7075C4.90247 12.3173 4.90227 11.6845 5.29266 11.294L9.29266 7.29349C9.68306 6.90304 10.3162 6.90284 10.7069 7.29303C11.0975 7.68322 11.0977 8.31606 10.7073 8.70651L6.70734 12.707C6.31694 13.0975 5.68378 13.0977 5.29312 12.7075Z" fill="#1E2126"/>
<path fill-rule="evenodd" clip-rule="evenodd" d="M5.29312 3.29251C5.68377 2.90232 6.31694 2.90252 6.70734 3.29297L10.7069 7.29303C11.0975 7.68322 11.0977 8.31606 10.7073 8.70651C10.3167 9.0967 9.68306 9.09696 9.29266 8.70651L5.29266 4.70599C4.90227 4.31554 4.90247 3.6827 5.29312 3.29251Z" fill="#1E2126"/>
</svg>
