<?xml version="1.0" encoding="UTF-8"?>
<svg width="24px" height="24px" viewBox="0 0 24 24" version="1.1" xmlns="http://www.w3.org/2000/svg" xmlns:xlink="http://www.w3.org/1999/xlink">
    <title>0508CFC1-E683-4562-A772-00C374CCB146</title>
    <g id="Page-1" stroke="none" stroke-width="1" fill="none" fill-rule="evenodd">
        <g id="Dashboard-(User)" transform="translate(-36.000000, -140.000000)">
            <g id="Navigation-/-Sidebar-/-Non-Active-Tab" transform="translate(20.000000, 128.000000)">
                <g id="Deals-Icon" transform="translate(16.000000, 12.000000)">
                    <path d="M10.585034,7.65306122 C10.9046417,7.65306122 11.1632653,7.93787726 11.1632653,8.28985368 L11.1632653,8.28985368 L11.1632653,19.6530612 L7.69387755,19.6530612 L7.69387755,8.28985368 C7.69387755,7.93787726 7.95250113,7.65306122 8.27210884,7.65306122 L8.27210884,7.65306122 Z M5.89115646,13.9387755 C6.21076417,13.9387755 6.46938776,14.2530144 6.46938776,14.6413516 L6.46938776,14.6413516 L6.46938776,19.6530612 L3,19.6530612 L3,14.6413516 C3,14.2530144 3.25862358,13.9387755 3.57823129,13.9387755 L3.57823129,13.9387755 Z M15.2789116,10.5102041 C15.5985193,10.5102041 15.8571429,10.8164689 15.8571429,11.1949517 L15.8571429,11.1949517 L15.8571429,19.4489796 L12.3877551,19.4489796 L12.3877551,11.1949517 C12.3877551,10.8164689 12.6463787,10.5102041 12.9659864,10.5102041 L12.9659864,10.5102041 Z M19.9727891,4 C20.2923968,4 20.5510204,4.30705957 20.5510204,4.68652461 L20.5510204,4.68652461 L20.5510204,19.4489796 L17.0816327,19.4489796 L17.0816327,4.68652461 C17.0816327,4.30705957 17.3402562,4 17.6598639,4 L17.6598639,4 Z" id="Combined-Shape-Copy" fill="#CDCDCD" fill-rule="nonzero"></path>
                    <rect id="Rectangle" x="0" y="0" width="24" height="24"></rect>
                </g>
            </g>
        </g>
    </g>
</svg>