<?xml version="1.0" encoding="UTF-8"?>
<svg width="16px" height="16px" viewBox="0 0 16 16" version="1.1" xmlns="http://www.w3.org/2000/svg" xmlns:xlink="http://www.w3.org/1999/xlink">
    <title>B717D8D8-FB5E-4825-8322-3E827C56CC90</title>
    <g id="Page-1" stroke="none" stroke-width="1" fill="none" fill-rule="evenodd">
        <g id="Dashboard-(Admin---Manage-/-Update)" transform="translate(-109.000000, -926.000000)">
            <g id="Group-9" transform="translate(83.000000, 926.000000)">
                <g id="Icon-/-Deals-/-User-/-Facebook" transform="translate(26.000000, 0.000000)">
                    <polygon id="Path" points="0 0 16 0 16 16 0 16"></polygon>
                    <path d="M14,13.3374374 C14,13.7032033 13.7035221,14 13.3377462,14 L10.2798071,14 L10.2798071,9.35290913 L11.8396666,9.35290913 L12.073384,7.54205709 L10.2798071,7.54205709 L10.2798071,6.38559599 C10.2798071,5.86129876 10.4255945,5.50403138 11.1774128,5.50403138 L12.1364714,5.50370451 L12.1364714,3.88374374 C11.9704176,3.86184354 11.4013239,3.81248638 10.73907,3.81248638 C9.3563782,3.81248638 8.40974095,4.6564611 8.40974095,6.206472 L8.40974095,7.54205709 L6.84595898,7.54205709 L6.84595898,9.35290913 L8.40974095,9.35290913 L8.40974095,14 L2.66225382,14 C2.29647789,14 2,13.7032033 2,13.3374374 L2,2.66256265 C2,2.29646982 2.29647789,2 2.66225382,2 L13.3377462,2 C13.7035221,2 14,2.29646982 14,2.66256265 L14,13.3374374" id="Facebook" fill="#4B4B4B"></path>
                </g>
            </g>
        </g>
    </g>
</svg>