<?xml version="1.0" encoding="UTF-8"?>
<svg width="16px" height="16px" viewBox="0 0 16 16" version="1.1" xmlns="http://www.w3.org/2000/svg" xmlns:xlink="http://www.w3.org/1999/xlink">
    <title>F4155992-AF70-429B-8D79-91A2946EE513</title>
    <g id="Page-1" stroke="none" stroke-width="1" fill="none" fill-rule="evenodd">
        <g id="Dashboard-(User---Close-Deal-Form)" transform="translate(-161.000000, -926.000000)">
            <g id="Group-9" transform="translate(83.000000, 926.000000)">
                <g id="Icon-/-Deals-/-User-/-Mail" transform="translate(78.000000, 0.000000)">
                    <polygon id="Path" points="0 0 16 0 16 16 0 16"></polygon>
                    <path d="M12.8,3 L3.2,3 C2.54,3 2.006,3.54 2.006,4.2 L2,11.4 C2,12.06 2.54,12.6 3.2,12.6 L12.8,12.6 C13.46,12.6 14,12.06 14,11.4 L14,4.2 C14,3.54 13.46,3 12.8,3 Z M12.8,11.4 L3.2,11.4 L3.2,5.4 L8,8.4 L12.8,5.4 L12.8,11.4 Z M8,7.2 L3.2,4.2 L12.8,4.2 L8,7.2 Z" id="Shape" fill="#4B4B4B" fill-rule="nonzero"></path>
                </g>
            </g>
        </g>
    </g>
</svg>