<?xml version="1.0" encoding="UTF-8"?>
<svg width="24px" height="24px" viewBox="0 0 24 24" version="1.1" xmlns="http://www.w3.org/2000/svg" xmlns:xlink="http://www.w3.org/1999/xlink">
    <title>ADECA1CE-2F31-4B0D-B670-733A64FDA487</title>
    <defs>
        <path d="M20,18.6045371 L15.6256045,14.2301416 C16.400508,13.1804391 16.8658711,11.8610348 16.8658711,10.4329355 C16.8658711,6.88011899 13.9857521,4 10.4329355,4 C6.88011899,4 4,6.88011899 4,10.4329355 C4,13.9857521 6.88011899,16.8658711 10.4329355,16.8658711 C11.8610348,16.8658711 13.1804391,16.4005254 14.2477993,15.6131659 L14.2301416,15.6256045 L18.6045371,20 L20,18.6045371 Z M4.99643367,10.4396681 C5.02414669,7.44466094 7.44467833,5.02414669 10.4370412,4.99641627 L10.4396855,4.99641627 C13.4346926,5.02412929 15.8552068,7.44466094 15.8829373,10.4370238 L15.8829373,10.4396681 C15.8552242,13.4346752 13.4346926,15.8551895 10.4423298,15.8829199 L10.4396855,15.8829199 C7.44467833,15.8552068 5.02416409,13.4346752 4.99643367,10.4423124 L4.99643367,10.4396681 Z" id="path-1"></path>
    </defs>
    <g id="Page-1" stroke="none" stroke-width="1" fill="none" fill-rule="evenodd">
        <g id="Dashboard-(User)" transform="translate(-970.000000, -111.000000)">
            <g id="Icon-/-Search" transform="translate(970.000000, 111.000000)">
                <rect id="Rectangle" x="0" y="0" width="24" height="24"></rect>
                <mask id="mask-2" fill="white">
                    <use xlink:href="#path-1"></use>
                </mask>
                <use id="Shape" fill="#CDCDCD" fill-rule="nonzero" xlink:href="#path-1"></use>
            </g>
        </g>
    </g>
</svg>