<svg width="16" height="16" viewBox="0 0 16 16" fill="none" xmlns="http://www.w3.org/2000/svg">
<path fill-rule="evenodd" clip-rule="evenodd" d="M10.7069 3.29251C11.0975 3.6827 11.0977 4.31554 10.7073 4.70599L6.70734 8.70651C6.31694 9.09696 5.68378 9.09716 5.29312 8.70697C4.90247 8.31678 4.90227 7.68394 5.29266 7.29349L9.29266 3.29297C9.68306 2.90252 10.3162 2.90232 10.7069 3.29251Z" fill="#1E2126"/>
<path fill-rule="evenodd" clip-rule="evenodd" d="M10.7069 12.7075C10.3162 13.0977 9.68306 13.0975 9.29266 12.707L5.29312 8.70697C4.90247 8.31678 4.90227 7.68394 5.29266 7.29349C5.68331 6.9033 6.31694 6.90304 6.70734 7.29349L10.7073 11.294C11.0977 11.6845 11.0975 12.3173 10.7069 12.7075Z" fill="#1E2126"/>
</svg>
