<?xml version="1.0" encoding="UTF-8"?>
<svg width="16px" height="16px" viewBox="0 0 16 16" version="1.1" xmlns="http://www.w3.org/2000/svg" xmlns:xlink="http://www.w3.org/1999/xlink">
    <title>692F449F-EFA6-45B6-AB38-3D8B381D2006</title>
    <g id="Page-1" stroke="none" stroke-width="1" fill="none" fill-rule="evenodd">
        <g id="Dashboard-(User---Close-Deal-Form)" transform="translate(-135.000000, -926.000000)">
            <g id="Group-9" transform="translate(83.000000, 926.000000)">
                <g id="Icon-/-Deals-/-User-/-Twitter" transform="translate(52.000000, 0.000000)">
                    <polygon id="Path" points="0 0 16 0 16 16 0 16"></polygon>
                    <path d="M12.1045043,3.7871433 C11.6565829,3.30269871 11.0164206,3 10.3076923,3 C8.94918965,3 7.84668785,4.11707222 7.84668785,5.49473131 C7.84668785,5.69040892 7.86783435,5.88007056 7.91012736,6.06276633 C5.86404293,5.95859491 4.05024965,4.96659172 2.83528689,3.45531459 C2.62318105,3.82513895 2.50206926,4.25417321 2.50206926,4.71107095 C2.50206926,5.57610533 2.93653379,6.33981798 3.59752223,6.7872168 C3.19445705,6.77518484 2.81414039,6.66183114 2.48156356,6.4762857 L2.48156356,6.50668222 C2.48156356,7.71589391 3.33030732,8.72467852 4.45748004,8.95296907 C4.25114143,9.0115457 4.03326836,9.04099233 3.80866686,9.04099233 C3.65006809,9.04099233 3.49531413,9.02579407 3.34536619,8.99666407 C3.65871893,9.98740075 4.56737778,10.7090015 5.64488826,10.728316 C4.80255253,11.3976728 3.74042133,11.7966271 2.58729608,11.7966271 C2.3886471,11.7966271 2.19224094,11.7852284 2,11.762431 C3.08936534,12.4691502 4.38410808,12.8823529 5.77401009,12.8823529 C10.3028863,12.8823529 12.7786292,9.08152103 12.7786292,5.78444817 C12.7786292,5.67584392 12.7767068,5.56755631 12.7725416,5.46116848 C13.2534643,5.10939205 13.671268,4.67022562 14,4.16994951 C13.5591274,4.36816017 13.0842923,4.50241148 12.5863883,4.56257127 C13.0948656,4.25417321 13.4851147,3.7652958 13.6690252,3.18269577 C13.1929084,3.46829643 12.6668091,3.67600601 12.1045043,3.7871433 Z" id="Twitter" fill="#4B4B4B"></path>
                </g>
            </g>
        </g>
    </g>
</svg>