<?xml version="1.0" encoding="UTF-8"?>
<svg width="16px" height="16px" viewBox="0 0 16 16" version="1.1" xmlns="http://www.w3.org/2000/svg" xmlns:xlink="http://www.w3.org/1999/xlink">
    <title>64343C40-1427-4EBB-88D9-5ACBAD62BDA6</title>
    <g id="Page-1" stroke="none" stroke-width="1" fill="none" fill-rule="evenodd">
        <g id="Dashboard-(Admin---Manage-/-Update)" transform="translate(-83.000000, -926.000000)">
            <g id="Icon-/-Deals-/-User-/-Google-Plus" transform="translate(83.000000, 926.000000)">
                <polygon id="Path" points="0 0 16 0 16 16 0 16"></polygon>
                <path d="M5.08195178,3 C6.3987312,3 7.59854286,3.51403871 8.50137536,4.35763109 C7.43796,5.38895934 7.47285208,5.4503189 7.05494015,5.87942948 C6.53274849,5.43609649 5.96337323,5.11792075 5.08195178,5.11792075 C3.41466558,5.11792075 2.11334969,6.50562209 2.11334969,8.21718813 C2.11334969,9.92916052 3.41466558,11.3168619 5.08195178,11.3168619 C6.72941293,11.3168619 7.39870642,10.5874552 7.82930637,9.24770367 L7.82930637,9.24770367 L7.27054625,9.24797396 C7.21706684,9.24801573 7.16230614,9.2480615 7.10659992,9.24811064 L6.41423172,9.24882322 C6.35633412,9.24888956 6.29883417,9.24895683 6.24206767,9.2490244 L5.48755252,9.24998423 C5.44651526,9.25003952 5.4078904,9.25009204 5.37201373,9.25014119 L5.08195178,9.25054816 L5.08195178,7.18423445 L9.9624811,7.18423445 C10.3022824,9.68453499 9.27693108,13.4347826 5.08195178,13.4347826 C2.27551855,13.4347826 0,11.0986494 0,8.21718813 C0,5.33572688 2.27551855,3 5.08195178,3 Z M14.2391396,5.47957644 L14.2391396,7.28744855 L16,7.28744855 L16,8.57884382 L14.2391396,8.57884382 L14.2391396,10.4387293 L12.9814388,10.4387293 L12.9814388,8.57884382 L11.1698263,8.57884382 L11.1698263,7.28744855 L12.9814388,7.28744855 L12.9814388,5.47957644 L14.2391396,5.47957644 Z" id="Google+" fill="#4B4B4B"></path>
            </g>
        </g>
    </g>
</svg>