<?xml version="1.0" encoding="UTF-8"?>
<svg width="16px" height="16px" viewBox="0 0 16 16" version="1.1" xmlns="http://www.w3.org/2000/svg" xmlns:xlink="http://www.w3.org/1999/xlink">
    <title>F3C39BEA-9DB6-44D9-9AA0-4FC1AFC179E0</title>
    <g id="Page-1" stroke="none" stroke-width="1" fill="none" fill-rule="evenodd">
        <g id="Dashboard-(User---Close-Deal-Form)" transform="translate(-109.000000, -926.000000)">
            <g id="Group-9" transform="translate(83.000000, 926.000000)">
                <g id="Icon-/-Deals-/-User-/-Telegram" transform="translate(26.000000, 0.000000)">
                    <polygon id="Path" points="0 0 16 0 16 16 0 16"></polygon>
                    <path d="M3.68744786,7.59815451 C6.37179692,6.41861836 8.16178341,5.64099594 9.05740729,5.26528724 C11.6145955,4.19256255 12.1459573,4.00621879 12.4922915,4 C12.5684645,3.99871228 12.7387816,4.01775178 12.8491058,4.10803834 C12.9422615,4.18427455 12.9678923,4.28725883 12.9801575,4.35953912 C12.9924227,4.4318194 13.0076957,4.59647575 12.9955548,4.72513343 C12.8569799,6.19361168 12.2573684,9.75722114 11.9523201,11.4019419 C11.8232427,12.097885 11.5690854,12.3312311 11.3230316,12.3540671 C10.7882999,12.403695 10.3822489,11.997655 9.86433504,11.6552508 C9.05390213,11.1194558 8.5960591,10.7859218 7.80939363,10.2630848 C6.90026556,9.65885628 7.48961545,9.32676175 8.0077249,8.78402638 C8.14331659,8.64198994 10.4993569,6.48065102 10.5449581,6.28458371 C10.5506613,6.26006221 10.5559542,6.16865769 10.5021131,6.12039275 C10.448272,6.07212781 10.3688072,6.08863254 10.3114631,6.1017589 C10.2301797,6.12036511 8.93550263,6.98342134 6.42743191,8.69092755 C6.05994213,8.94543379 5.72708131,9.06943776 5.42884943,9.06293949 C5.1000727,9.05577567 4.46763819,8.87545339 3.99748814,8.72131836 C3.42082996,8.53226548 2.96251351,8.43231185 3.00242259,8.11124156 C3.0232097,7.94400829 3.25155145,7.77297927 3.68744786,7.59815451 Z" id="Path-3" fill="#4B4B4B" fill-rule="nonzero"></path>
                </g>
            </g>
        </g>
    </g>
</svg>