<?xml version="1.0" encoding="UTF-8"?>
<svg width="16px" height="16px" viewBox="0 0 16 16" version="1.1" xmlns="http://www.w3.org/2000/svg" xmlns:xlink="http://www.w3.org/1999/xlink">
    <title>FD83BA61-106F-4A1F-8F9C-B585C1B08F9A</title>
    <g id="Page-1" stroke="none" stroke-width="1" fill="none" fill-rule="evenodd">
        <g id="BlackDragon-Styleguide" transform="translate(-1201.000000, -4654.000000)">
            <g id="Icon-/-Deals-/-User-/-Error" transform="translate(1201.000000, 4654.000000)">
                <polygon id="Path" points="0 0 16 0 16 16 0 16"></polygon>
                <path d="M8,1.33333333 C4.32,1.33333333 1.33333333,4.32 1.33333333,8 C1.33333333,11.68 4.32,14.6666667 8,14.6666667 C11.68,14.6666667 14.6666667,11.68 14.6666667,8 C14.6666667,4.32 11.68,1.33333333 8,1.33333333 Z M8.66666667,11.3333333 L7.33333333,11.3333333 L7.33333333,10 L8.66666667,10 L8.66666667,11.3333333 Z M8.66666667,8.66666667 L7.33333333,8.66666667 L7.33333333,4.66666667 L8.66666667,4.66666667 L8.66666667,8.66666667 Z" id="Shape" fill="#E9504F" fill-rule="nonzero"></path>
            </g>
        </g>
    </g>
</svg>