<?xml version="1.0" encoding="UTF-8"?>
<svg width="24px" height="24px" viewBox="0 0 24 24" version="1.1" xmlns="http://www.w3.org/2000/svg" xmlns:xlink="http://www.w3.org/1999/xlink">
    <title>44EC32B0-D8FD-4708-B92F-360CEA827527</title>
    <g id="Page-1" stroke="none" stroke-width="1" fill="none" fill-rule="evenodd">
        <g id="Dashboard-(Admin---Add-Deal-Overlay-Background)" transform="translate(-1255.000000, -508.000000)">
            <g id="Deal-/-Single-Template-(Admin-3)" transform="translate(280.000000, 470.000000)">
                <g id="Icon-/-Deals-/-User-/-Fully-distributed-2" transform="translate(975.000000, 38.000000)">
                    <polygon id="Path" points="0 0 24 0 24 24 0 24"></polygon>
                    <path d="M11.99,2 C6.47,2 2,6.48 2,12 C2,17.52 6.47,22 11.99,22 C17.52,22 22,17.52 22,12 C22,6.48 17.52,2 11.99,2 Z M16.23,18 L12,15.45 L7.77,18 L8.89,13.19 L5.16,9.96 L10.08,9.54 L12,5 L13.92,9.53 L18.84,9.95 L15.11,13.18 L16.23,18 Z" id="Shape" fill="#323232" fill-rule="nonzero"></path>
                </g>
            </g>
        </g>
    </g>
</svg>