<?xml version="1.0" encoding="UTF-8"?>
<svg width="12px" height="12px" viewBox="0 0 12 12" version="1.1" xmlns="http://www.w3.org/2000/svg" xmlns:xlink="http://www.w3.org/1999/xlink">
    <title>C00CC3ED-E889-40A4-8EB2-9F1C306CFF14</title>
    <g id="Symbols" stroke="none" stroke-width="1" fill="none" fill-rule="evenodd">
        <g id="help_center-24px">
            <rect id="Rectangle" x="0" y="0" width="12" height="12"></rect>
            <path d="M9.5,1.5 L2.5,1.5 C1.95,1.5 1.5,1.95 1.5,2.5 L1.5,9.5 C1.5,10.05 1.95,10.5 2.5,10.5 L9.5,10.5 C10.05,10.5 10.5,10.05 10.5,9.5 L10.5,2.5 C10.5,1.95 10.05,1.5 9.5,1.5 Z M6.005,9 C5.655,9 5.375,8.72 5.375,8.37 C5.375,8.015 5.655,7.745 6.005,7.745 C6.36,7.745 6.63,8.015 6.63,8.37 C6.625,8.715 6.36,9 6.005,9 Z M7.51,5.3 C7.13,5.855 6.77,6.03 6.575,6.385 C6.495,6.53 6.465,6.625 6.465,7.09 L5.555,7.09 C5.555,6.845 5.515,6.445 5.71,6.1 C5.955,5.665 6.42,5.405 6.69,5.02 C6.975,4.615 6.815,3.855 6.005,3.855 C5.475,3.855 5.215,4.255 5.105,4.595 L4.28,4.245 C4.505,3.575 5.11,3 5.995,3 C6.735,3 7.24,3.335 7.5,3.76 C7.72,4.12 7.85,4.795 7.51,5.3 Z" id="Shape" fill="#4B4B4B" fill-rule="nonzero"></path>
        </g>
    </g>
</svg>