<svg xmlns="http://www.w3.org/2000/svg" width="925" height="1024" viewBox="0 0 925 1024">
    <g fill="none" fill-rule="evenodd" opacity=".04">
        <g fill="#FFF">
            <path d="M921 61c-24.03.847-85.12 32.273-95 48.718 17.442 2.483 35.337 5.525 49.98-6.371C891.756 90.547 905.75 75.522 921 61m368.274 552.29c-13.993-13.769-27.377-28.248-42.118-41.151-38.26-33.487-82.018-58.002-129.04-76.839-1.753-.71-4.071-.894-5.16-2.157-2.218-2.555-3.773-5.692-5.596-8.588 2.798-.61 5.682-2.002 8.395-1.718 98.455 10.49 188.613 43.721 270.334 99.891 37.242 25.608 75.347 50.124 111.345 77.407 31.476 23.847 58.33 52.862 76.703 88.592 36.705 71.359 33.85 142.065-5.441 211.294-15.448 27.255-39.207 45.453-71.87 56.71 1.286-5.337.975-10.078 3.18-12.265 24.268-23.933 32.126-53.288 29.794-86.42-1.569-22.627-1.611-45.424-4.353-67.91-3.138-25.72-17.837-46.275-34.09-66.134-.51 22.627-7.562 42.5-22.02 61.777-1.188-9.383-1.866-17.063-3.153-24.629-5.3-30.903-20.38-55.006-46.344-73.474-46.273-32.947-98.03-38.199-152.106-33.557-11.137.95-22.727 2.527-32.974 6.672-21.455 8.715-32.055 31.342-25.54 50.62 5.047 14.961 13.173 21.221 29.116 22.456 16.127 1.25 30.218-3.989 42.81-14.039 7.718 24.827-8.917 49.328-34.966 50.024-15.476.412-31.023-2.385-46.88-3.79 20.422 16.75 44.59 25.196 70.554 27.922 25.412 2.683 51.008 3.52 78.795 5.309-3.279 2.342-4.72 4.102-6.445 4.5-62.131 13.811-124.503 17.232-186.846 1.86-33.073-8.163-57.058-29.484-76.294-56.767-5.922-8.418-11.59-17.02-15.928-23.408-19.575 7.892-38.161 15.387-56.252 22.684 12.89 10.178 27.532 20.91 41.2 32.762 36.634 31.67 67.544 67.697 83.543 114.612 9.13 26.786 11.335 54.14 7.223 82.09-.297 2.002-1.018 3.947-1.682 6.374-67.064-124.08-177.745-185.53-306.177-222.112-.877 1.108-1.767 2.186-2.643 3.28 13.71 11.583 27.532 23.038 41.072 34.834 2.94 2.556 4.862 6.289 5.964 10.732-64.619-23.592-120.814-61.48-178.931-98.912-8.155 58.54-30.614 108.323-67.234 151.619-17.102 20.228-40.86 39.732-57.609 47.468-3.858-8.375-2.897-16.353 1.668-23.933 30.896-51.259 41.468-107.216 36.832-166.197-2.643-33.472-10.77-65.865-26.345-95.959-1.357-2.626-3.053-5.082-5.3-8.801-6.417 26.133-12.452 50.748-18.5 75.348l-2.46.255c-1.852-4.428-3.844-8.815-5.526-13.3-10.092-26.8-22.077-53.076-29.766-80.558-14.84-53.19-5.102-105.1 13.964-155.593 27.094-71.686 79.77-118.77 147.103-150.81 34.797-16.55 71.757-26.601 110.101-31.073 2.784-.326 5.569-.795 10.402-3.69-1.427-.384-3.151-.398-4.24-1.221-18.444-14.082-36.945-28.12-55.135-42.529-7.265-5.763-9.696-13.613-6.826-23.422 13.865 3.152 27.461 6.473 41.157 9.27 58.852 11.995 117.917 10.362 177.348 4.3 46.938-4.783 89.707-20.682 130.807-42.613 6.36-3.379 12.381-7.438 18.473-11.328 38.387-24.415 31.885-74.17 7.067-98.415-13.046-12.719-29.638-18.141-47.291-23.081 5.003 11.072 10.543 20.895 13.907 31.4 3.35 10.476 4.551 21.647 4.933 32.677l-28.833-32.067-2.897 2.001c6.953 26.73 16.38 53.175 10.077 83.326-5.201-12.208-8.947-23.223-14.416-33.288-6.417-11.81-14.063-22.996-21.752-34.068-2.403-3.464-6.402-6.033-10.063-8.39-15.547-9.979-19.264-8.119-21.116 10.164-3.886 38.569-34.91 67.64-75.473 67.57-28.169-.057-56.365-3.592-84.52-5.963-15.645-1.32-31.235-3.45-46.824-5.238-23.024-2.64-42.104 5.21-57.312 22.344-12.452 14.01-26.317 26.104-42.98 34.735-31.815 16.48-71.29-1.207-78.174-35.147-4.211-20.768 4.1-37.021 19.35-50.28 15.32-13.314 33.977-20.17 52.86-26.26 14.938-4.827 30.104-8.915 45.24-13.06 6.502-1.774 9.866-4.84 10.304-12.307.735-12.25 7.873-21.165 18.53-26.715 5.794-3.01 12.112-5.281 18.444-6.942 28.606-7.51 52.365-22.371 71.106-45.424 11.25-13.84 14.77-15.842 29.101-18.937-.183-20-15.533-31.768-35.49-27.056-17.242 4.06-31.588 13.67-45.27 24.473-2.67 2.115-5.342 4.244-10.543 8.375.947-6.771.876-11.3 2.261-15.302 11.675-33.246 35.264-52.068 69.92-56.653 24.253-3.208 47.785.482 69.848 11.015 7.858 3.748 12.211 2.896 18.275-3.534 62.47-66.263 135.315-117.338 220.668-149.632 17.61-6.671 35.744-11.98 53.68-17.815 2.6-.851 5.385-1.05 8.183-1.561 3.491 8.205-.41 13.23-5.667 17.744-20.791 17.8-41.864 35.303-62.33 53.487-18.02 16.04-35.362 32.834-53 49.286.437.738.89 1.462 1.328 2.2 12.48.625 24.974 1.235 37.454 1.845.254 1.023.523 2.045.777 3.067-2.812 1.959-5.37 4.528-8.48 5.791-12.791 5.21-26.204 9.128-38.528 15.246-11.392 5.664-21.837 13.343-32.409 20.54-2.516 1.718-3.943 5.054-5.865 7.666.523.71 1.046 1.433 1.583 2.143 3.222-1.306 6.501-2.512 9.667-3.975 40.903-18.88 83.883-30.122 128.447-35.771 7.335-.937 8.41 2.498 6.713 8.19-1.512 5.082-3.59 9.994-6.247 17.233 62.259-25.48 125.818-36.964 190.96-40.257 64.435-3.251 128.955-8.73 192.825 5.096.226.937.452 1.888.678 2.839-3.053 1.575-6.007 3.435-9.215 4.656-42.853 16.367-87.925 23.649-132.687 32.11-38.302 7.239-76.463 14.904-112.56 30.363-2.685 1.15-5.258 2.64-8.946 4.514 67.417 1.39 133.577-1.746 198.492 12.378.1 1.036.212 2.087.325 3.123-1.64.98-3.18 2.427-4.946 2.853-13.738 3.222-27.533 6.274-41.327 9.34-30.868 6.857-61.75 13.685-92.618 20.513-.099 1.05-.198 2.115-.31 3.165 14.09 9.468 28.62 18.369 42.202 28.518 49.51 37.021 94.809 77.562 109.38 141.696 1.95 8.617 1.753 17.73 1.329 27.17-56.747-68.01-128.574-113.22-209.135-146.168 1.342 1.405 2.53 2.995 4 4.23 37.595 31.514 67.332 69.017 90.695 112.454 37.27 69.301 37.285 139.695 6.516 209.819-14.996 34.153-38.868 63.282-76.35 76.796-1.145.411-2.346.61-4.664 1.192 0-6.317-1.357-12.435.197-17.673 18.106-61.181 8.862-119.708-16.253-176.786-2.46-5.579-5.64-10.86-8.862-17.035-10.204 12.819-18.953 24.714-28.62 35.815-59.743 68.69-136.107 108.89-223.793 127.586-36.111 7.694-73.325 10.306-110.086 14.876-2.855.355-6.05-2.157-9.102-3.335 2.12-3.024 3.632-6.942 6.473-8.858 7.632-5.167 15.83-9.468 23.8-14.124-.338-1.022-.678-2.059-1.031-3.08-18.84 1.873-37.737 3.278-56.506 5.734-25.37 3.308-49.949 9.766-72.661 22.017-25.766 13.883-44.14 34.125-56.507 61.124-11.024 24.06-5.823 43.948 9.922 62.63 5.837 6.926 13.399 12.363 19.618 19.006 2.812 2.996 4.254 7.283 6.317 10.973-.833 1.179-1.653 2.357-2.473 3.55-8.325-1.804-17.328-2.144-24.833-5.679-30.74-14.465-56.464-35.19-74.738-64.432-1.287-2.058-2.813-3.96-4.48-6.274-8.961 27.638 4.24 62.572 29.963 80.117 25.78 17.602 55.29 24.189 85.522 26.36 30.995 2.23 62.174 1.875 93.254 2.826 2.813.085 5.611 1.377 8.395 2.115-1.413 3.222-1.936 7.878-4.395 9.411-8.961 5.579-18.105 11.626-28.041 14.678-15.547 4.77-31.66 8.233-47.8 10.42-15.689 2.114-31.702 1.916-49.708 2.838 5.582 4.855 10.105 9.908 15.617 13.386 16.212 10.278 34.826 12.464 53.34 13.471 38.458 2.087 76.789.015 114.101-9.908 27.264-7.24 44.663-25.75 48.776-54.14 3.957-27.269-7.477-48.448-29.865-63.92-1.54-1.066-3.576-1.988-4.339-3.493-1.201-2.356-2.233-5.295-1.837-7.736.184-1.065 4.127-2.257 6.275-2.13 47.15 3.138 84.152 23.266 107.91 65.37 1.838 3.264 3.647 6.572 5.499 9.85.127.228.522.299 1.582.867 24.24-11.84 48.79-24.743 77.467-24.501.325-.909.636-1.832.975-2.74-17.229-8.489-34.43-16.992-51.672-25.424-3.11-1.504-6.643-2.242-9.512-4.074-2.078-1.32-3.378-3.86-5.032-5.848 2.247-1.136 4.551-3.378 6.685-3.208 25.017 1.916 50.146 3.307 75.007 6.672 18.897 2.555 37.469 7.594 56.097 11.895 4.183.966 8.014 3.464 12 5.267.805-.753 1.582-1.505 2.374-2.257" transform="translate(-515)"/>
        </g>
    </g>
</svg>
