<?xml version="1.0" encoding="UTF-8"?>
<svg width="245px" height="67px" viewBox="0 0 245 67" version="1.1" xmlns="http://www.w3.org/2000/svg" xmlns:xlink="http://www.w3.org/1999/xlink">
    <title>D2F78C3C-75BF-4A28-95D3-8727902A5B89</title>
    <g id="Page-1" stroke="none" stroke-width="1" fill="none" fill-rule="evenodd">
        <g id="Log-in-Screen" transform="translate(-150.000000, -200.000000)" fill="#FFFFFF">
            <g id="Logo" transform="translate(150.000000, 200.000000)">
                <path d="M118.999498,-7.10542736e-15 C119.186488,0.437184844 118.977544,0.704941651 118.695923,0.945468953 C117.582309,1.89396341 116.453555,2.82657398 115.357353,3.79549056 C114.39212,4.6501945 113.463226,5.54498631 112.518433,6.42162513 C112.541901,6.46095663 112.566127,6.49953177 112.589595,6.53886328 C113.258066,6.57214378 113.927294,6.60466792 114.595765,6.63719205 C114.609392,6.69165106 114.623776,6.74611007 114.637403,6.80056908 C114.486751,6.90494885 114.349726,7.04185276 114.183176,7.10917015 C113.49805,7.38675983 112.779614,7.59551938 112.11947,7.92151707 C111.509292,8.22331076 110.949835,8.63250972 110.383565,9.01599193 C110.248811,9.10751333 110.172349,9.28526149 110.069391,9.42443452 C110.097402,9.46225328 110.125413,9.50082841 110.15418,9.53864717 C110.326787,9.46906065 110.502421,9.40476877 110.671999,9.32686212 C112.862889,8.32088316 115.165064,7.72183403 117.552028,7.42079672 C117.944934,7.37087595 118.00247,7.55391874 117.911624,7.85722518 C117.83062,8.12800749 117.719335,8.3897133 117.57701,8.77546463 C120.911795,7.41777121 124.316228,6.80586371 127.80545,6.63038467 L129.023705,6.56618931 C132.069493,6.40271575 135.115213,6.25188564 138.13382,6.90192335 C138.145932,6.95184411 138.158045,7.00252125 138.170158,7.05319839 C138.006636,7.13715603 137.848414,7.23624118 137.676564,7.30128944 C135.381203,8.17339 132.966985,8.56141046 130.569422,9.01221006 C128.51783,9.39796139 126.473807,9.80640398 124.540313,10.6300965 C124.396475,10.6913629 124.258692,10.7707823 124.061104,10.8706238 C127.67221,10.9447486 131.215939,10.7775897 134.693049,11.530183 C134.698348,11.5853984 134.704404,11.6413701 134.710461,11.6965855 C134.622643,11.7487754 134.540125,11.8259257 134.445495,11.8486169 C133.709647,12.0203141 132.97077,12.1829347 132.231894,12.3463118 C130.578507,12.711641 128.924363,13.0754574 127.270976,13.4392739 L127.254321,13.6079455 L127.254321,13.6079455 C128.009095,14.1124478 128.787338,14.586695 129.514858,15.1275032 C132.166788,17.1001297 134.593119,19.2603371 135.373632,22.6776401 C135.478105,23.1367598 135.467506,23.6223527 135.444795,24.1253422 C132.405257,20.5015488 128.557953,18.0924939 124.242794,16.3369471 C124.314714,16.4118283 124.378306,16.4965423 124.457038,16.5623469 C126.470779,18.2414998 128.063602,20.239843 129.314998,22.554351 C131.311327,26.2469745 131.312084,29.9978389 129.663996,33.7343322 C128.860771,35.5541709 127.582122,37.1062527 125.574437,37.8263219 C125.513117,37.8482567 125.448768,37.858846 125.324612,37.8898574 C125.324612,37.5532704 125.251936,37.2272727 125.335211,36.9481703 C126.304986,33.6881933 125.809878,30.5696586 124.464609,27.528274 C124.332883,27.2310186 124.162548,26.949647 123.989941,26.6206238 C123.443355,27.3036306 122.974743,27.937473 122.456924,28.5289584 C119.256894,32.1890578 115.166578,34.3311122 110.469868,35.3272583 C108.535617,35.7372137 106.542317,35.8763867 104.573242,36.1199395 C104.420319,36.1388489 104.249227,36.0049705 104.085705,35.9421913 C104.199262,35.7810834 104.280265,35.5723239 104.432431,35.4702132 C104.841236,35.1948927 105.280322,34.965711 105.707296,34.7176199 C105.689127,34.6631609 105.670958,34.6079455 105.652032,34.5534865 L103.632627,34.743869 C103.296359,34.7780459 102.960483,34.8154445 102.625364,34.8590621 C101.266468,35.0352975 99.9499659,35.3794482 98.733394,36.0322 C97.3533003,36.7719349 96.3691414,37.8505259 95.7067267,39.2891514 C95.1162313,40.5712073 95.394824,41.6308889 96.2381725,42.6262786 C96.5508323,42.9953897 96.9558515,43.2850814 97.2889515,43.639065 C97.4396035,43.7986601 97.5168221,44.0270854 97.6273508,44.223743 C97.5826851,44.2865221 97.5387765,44.3493013 97.4948678,44.4128368 L97.2694295,44.3701506 L97.2694295,44.3701506 L96.8133377,44.2961659 C96.5867919,44.256078 96.3657347,44.2044554 96.1647391,44.1102867 C94.5181655,43.3395404 93.1403429,42.2352327 92.1614833,40.6770998 C92.0925921,40.5674254 92.0108312,40.4660712 91.9214999,40.342782 C91.4415331,41.8154445 92.1486135,43.6768837 93.526436,44.6117634 C94.9072868,45.5496686 96.4879975,45.9006267 98.1073175,46.0163521 C99.767518,46.135103 101.43756,46.1161936 103.102303,46.1668708 C103.252955,46.171409 103.40285,46.2402392 103.551988,46.2795707 L103.517409,46.3706613 L103.517409,46.3706613 L103.455275,46.5640623 C103.422344,46.6577582 103.38241,46.7402031 103.316547,46.7810474 C102.83658,47.0783028 102.346772,47.4005187 101.814569,47.5631393 C100.981819,47.8172814 100.118787,48.0018369 99.2542412,48.1183187 C98.4139209,48.2310186 97.5561885,48.2204293 96.5917127,48.2695937 C96.8907456,48.528274 97.1330001,48.7975436 97.4282478,48.9828555 C98.2965789,49.5304711 99.2936076,49.6469529 100.285337,49.7006555 C102.345257,49.8118427 104.398364,49.7014119 106.396964,49.1727057 C107.857305,48.7869543 108.789228,47.8006411 109.009528,46.2878908 C109.2215,44.8348941 108.609051,43.7063824 107.409891,42.8819334 C107.327373,42.8252053 107.218358,42.7760409 107.177478,42.6958651 C107.113129,42.5703069 107.057865,42.4137372 107.079062,42.2836407 C107.088904,42.2269125 107.300119,42.163377 107.41519,42.1701844 C109.940694,42.3373433 111.922638,43.4098833 113.195232,45.653292 C113.293647,45.8272583 113.390549,46.0034937 113.489722,46.1782164 C113.496536,46.1903184 113.517733,46.1941003 113.574511,46.2243553 L114.132555,45.9527394 C115.253066,45.4113909 116.407267,44.9078303 117.723877,44.9188518 C117.741289,44.8704437 117.757944,44.8212794 117.776113,44.7728713 C116.853275,44.320559 115.93195,43.8674903 115.008355,43.4182034 C114.841805,43.3380277 114.652544,43.2986962 114.498864,43.2011238 C114.387578,43.1307809 114.31793,42.9953897 114.229355,42.8894972 C114.349726,42.8289872 114.473124,42.7094799 114.587438,42.7185564 C115.927408,42.8206671 117.273435,42.8947918 118.605078,43.0740527 C119.617247,43.2102003 120.612005,43.4787134 121.609791,43.7078951 C121.833876,43.7593286 122.039035,43.8924507 122.252522,43.9885103 C122.295674,43.9484224 122.337311,43.9083345 122.379706,43.8682467 C121.630231,43.1345627 120.913309,42.3630601 120.123711,41.6755151 C118.074389,39.891226 115.730576,38.5849661 113.211887,37.5812563 C113.118013,37.5434375 112.993857,37.5336047 112.935565,37.4662873 C112.816709,37.3301397 112.733434,37.1629808 112.635775,37.0086803 C112.78567,36.9761562 112.940107,36.9020314 113.08546,36.9171589 C118.359038,37.4761202 123.18823,39.2467944 127.565467,42.2397709 C129.560281,43.6042717 131.601275,44.9105316 133.52947,46.3642847 C135.21541,47.634995 136.653796,49.1810258 137.637955,51.0848221 C139.604002,54.88712 139.451079,58.6546247 137.346493,62.3434664 C136.519042,63.7957067 135.246449,64.7653796 133.496917,65.3651851 C133.565808,65.0807881 133.549153,64.8281588 133.667252,64.711677 C134.967099,63.4364285 135.388016,61.8722446 135.263104,60.106865 C135.179072,58.901203 135.176801,57.6864645 135.029934,56.4883662 C134.86187,55.1178144 134.074543,54.0225832 133.20394,52.9644143 C133.176687,54.1700764 132.798921,55.2290016 132.024464,56.2561591 C131.960872,55.7561951 131.924534,55.3469961 131.855643,54.9438481 C131.571751,53.2972194 130.763983,52.0128944 129.373291,51.0288503 C126.894724,49.2733036 124.122424,48.9934447 121.225969,49.2407794 C120.629417,49.2914566 120.00864,49.3754142 119.459782,49.5962758 C118.310587,50.0606901 117.742803,51.2663521 118.091801,52.2935096 C118.362066,53.090729 118.797367,53.4242904 119.651314,53.4900951 C120.515103,53.5566561 121.269877,53.2775537 121.944405,52.7420401 C122.357751,54.0649402 121.466709,55.3704437 120.071475,55.4075061 C119.24251,55.429441 118.40976,55.2804351 117.560355,55.205554 C118.654286,56.0980766 119.948833,56.5481199 121.339525,56.6933439 C122.700693,56.8362988 124.071702,56.8809249 125.560053,56.9762282 C125.384419,57.1010301 125.3072,57.1948206 125.214841,57.2159991 C121.886869,57.9519522 118.546028,58.1342386 115.206701,57.3150843 C113.435215,56.8801686 112.150509,55.7440931 111.12017,54.29034 C110.802968,53.8418095 110.499393,53.3834462 110.26698,53.0430774 C109.218472,53.463622 108.222958,53.862988 107.25394,54.2517649 C107.944365,54.7940859 108.728664,55.3659055 109.460727,55.9974787 C111.422988,57.6849517 113.078647,59.6046319 113.935622,62.1044518 C114.424673,63.5317317 114.542772,64.9892667 114.322472,66.4785694 C114.306574,66.5852183 114.267965,66.6888417 114.232384,66.8181818 C110.640203,60.2067065 104.711781,56.9323584 97.83251,54.9831797 L97.6909426,55.1579023 L97.6909426,55.1579023 C98.4252766,55.7751045 99.1656669,56.3854992 99.8909164,57.014047 C100.048382,57.1501945 100.15134,57.3491212 100.21039,57.5858666 C96.7491781,56.3287711 93.7391658,54.3100058 90.6261953,52.3154445 C90.1893801,55.4347356 88.986435,58.0873433 87.0249305,60.3942876 C86.1089056,61.4721222 84.8363124,62.5113816 83.9392136,62.9236061 C83.7325402,62.4773448 83.7840193,62.0522619 84.028545,61.6483576 C85.6834461,58.9170869 86.2497161,55.935456 86.0014052,52.7927172 C85.8598377,51.0091846 85.4245366,49.2831364 84.5902726,47.6796211 C84.5175963,47.5396917 84.4267508,47.4088388 84.3063806,47.2106685 C83.962682,48.6031552 83.6394237,49.9147097 83.3154083,51.2255079 L83.1836824,51.2391226 L83.1836824,51.2391226 C83.0845094,51.0031336 82.977766,50.7694136 82.8876776,50.5303991 C82.3471472,49.1023628 81.7051728,47.7023123 81.2933401,46.23797 C80.4984425,43.4038323 81.0200467,40.6377683 82.0413009,37.9473419 C83.4925569,34.1276473 86.3140649,31.6187509 89.920629,29.9116122 C91.7844747,29.0296787 93.7641483,28.4941651 95.8180124,28.2559069 C95.9671503,28.2385103 96.1162882,28.2135499 96.3751977,28.0592494 C96.2987362,28.0388273 96.2063766,28.0380709 96.1480841,27.9942011 C95.1601399,27.243877 94.1691676,26.4958219 93.1948502,25.7281011 C92.8057289,25.4210128 92.6755171,25.0027374 92.8291973,24.4800821 C93.5718588,24.6479974 94.3001364,24.8249892 95.0337134,24.9739951 C98.1860502,25.6131321 101.349743,25.526149 104.533119,25.2031768 C107.047266,24.9482783 109.338085,24.1011382 111.539573,22.9325385 C111.880244,22.7525213 112.202745,22.536198 112.529032,22.3289512 C114.585167,21.0279859 114.236926,18.3768909 112.907554,17.0850022 C112.208801,16.40729 111.32003,16.1183547 110.374481,15.8551361 C110.642475,16.4451088 110.939236,16.9685204 111.119413,17.528238 C111.298833,18.0864429 111.363182,18.6817101 111.383622,19.2694136 L109.839249,17.5607621 L109.684055,17.667411 C110.056521,19.0916655 110.561471,20.5007924 110.223828,22.1073332 C109.945236,21.4568506 109.744619,20.8699035 109.451642,20.3336335 C109.107944,19.7043293 108.698382,19.1083057 108.286549,18.5183331 C108.157852,18.3337776 107.943608,18.1968736 107.747533,18.0713154 C106.914783,17.5395836 106.71568,17.6386688 106.616507,18.61288 C106.40832,20.6679513 104.746605,22.2170076 102.573885,22.2132258 C101.065094,22.2102003 99.5547882,22.0218628 98.0467539,21.8955482 C97.2087047,21.8252053 96.3736836,21.711749 95.5386626,21.6164458 C94.3054357,21.47576 93.2834245,21.8940354 92.4688437,22.8069803 C91.8018867,23.5535225 91.0592252,24.1979542 90.1666687,24.6578303 C88.4625596,25.5359818 86.348132,24.5935384 85.9794509,22.7850454 C85.7538514,21.6784685 86.198994,20.812419 87.015846,20.1059646 C87.8364831,19.3964847 88.835783,19.0311555 89.8471956,18.7066705 C90.6473925,18.449503 91.4597022,18.2316669 92.2704978,18.0108054 C92.6187387,17.9162585 92.7989155,17.7528814 92.8223839,17.3550281 C92.8617502,16.7022763 93.2440581,16.2272727 93.8148703,15.93153 C94.1252589,15.7711785 94.4636582,15.6501585 94.8028145,15.5616626 C96.3350743,15.1615401 97.6076676,14.3696153 98.6115097,13.1412621 C99.2141178,12.4037963 99.4026221,12.2971474 100.170266,12.1322576 C100.160425,11.066525 99.3382733,10.43949 98.2693252,10.6906065 C97.3457299,10.9069298 96.5773288,11.4189958 95.8445089,11.9945973 C95.7014274,12.1072972 95.5583458,12.2207535 95.2797531,12.4408587 C95.3304751,12.0800677 95.3266899,11.838784 95.4008804,11.6254862 C96.0261998,9.85405561 97.2897085,8.85110215 99.1459837,8.60679297 C100.445074,8.43585218 101.705554,8.63250972 102.887302,9.1937401 C103.308219,9.39342314 103.541389,9.34804063 103.866162,9.00540268 C107.212302,5.47464342 111.114114,2.75320559 115.685911,1.0324521 C116.15755,0.854703933 116.636192,0.695108774 117.11701,0.541091882 L118.561169,0.0832012678 L118.561169,0.0832012678 C118.700465,0.0378187581 118.849603,0.0272295058 118.999498,-7.10542736e-15 Z M19.4289759,27.1802773 L19.4289759,41.2330757 L27.3488372,41.2330757 L27.3488372,45.3004622 L14.8139535,45.3004622 L14.8139535,27.1802773 L19.4289759,27.1802773 Z M37.9122281,27.1806327 C39.2633158,27.2058151 40.6151538,27.1991492 41.9662416,27.1828546 C42.2745686,27.1791513 42.4403601,27.2509954 42.5528882,27.5598505 C44.6691673,33.3755118 46.7974494,39.1874697 48.9219805,44.9994276 C48.9497374,45.0749749 48.9632408,45.1549662 49,45.2986542 C47.5303826,45.2986542 46.1312828,45.3082828 44.7314329,45.2831004 C44.5993998,45.2808784 44.4088522,45.0860848 44.3510878,44.9409155 C44.0105026,44.0669369 43.6924231,43.184811 43.3848462,42.2982411 C43.291823,42.0279003 43.1672918,41.910876 42.8544636,41.913098 C40.8859715,41.9286518 38.9174794,41.9264299 36.9489872,41.9138386 C36.651913,41.9116167 36.5101275,42.0041991 36.4133533,42.2856499 C36.1035259,43.1877736 35.7704426,44.0817501 35.4276069,44.9727639 C35.3788447,45.1001574 35.2303076,45.2823597 35.1267817,45.283841 C33.6976744,45.3038388 32.267817,45.2979136 30.7674419,45.2979136 C31.180045,44.1684073 31.567892,43.1055604 31.9557389,42.0434541 C33.7074269,37.2513848 35.4643661,32.4615375 37.1987997,27.6635429 C37.3383346,27.2798811 37.5168792,27.1732261 37.9122281,27.1806327 Z M175.704087,27.1804711 C177.08841,27.2041663 178.473485,27.2034258 179.857808,27.1819521 C180.208204,27.1767688 180.338758,27.297466 180.452805,27.612908 C182.540921,33.3501011 184.644042,39.0828514 186.741912,44.8170827 C186.791433,44.9533299 186.825197,45.0962414 186.883721,45.2946885 C185.629951,45.2946885 184.417449,45.3057956 183.205696,45.2909861 C182.175519,45.278398 182.444881,45.4805475 182.074978,44.5097859 C181.787608,43.7567238 181.533253,42.9903331 181.224875,42.2446757 C181.165601,42.1002833 180.933004,41.9336766 180.77769,41.9321957 C178.77586,41.9107219 176.77328,41.9225695 174.77145,41.9114624 C174.503589,41.9099815 174.394794,42.0121669 174.31226,42.2446757 C173.997129,43.1458327 173.672995,44.0440278 173.32485,44.9333371 C173.267827,45.079951 173.079499,45.2761766 172.948194,45.2791385 C171.548114,45.3035742 170.148033,45.2946885 168.651163,45.2946885 C169.025568,44.2683914 169.372212,43.3131798 169.720356,42.3587088 C171.517351,37.4441823 173.316597,32.5296559 175.103838,27.611427 C175.216384,27.3041303 175.34994,27.1745473 175.704087,27.1804711 Z M232.821272,27.181189 C233.131654,27.1685981 233.310142,27.2863601 233.485762,27.538919 C235.791763,30.8710664 238.109234,34.196548 240.423838,37.5227703 C240.522042,37.6634923 240.622396,37.8019923 240.800167,38.0523292 L240.800167,27.2293307 L245,27.2293307 L245,45.2972872 C243.652383,45.2972872 242.345625,45.3113594 241.040301,45.2802524 C240.871132,45.2758086 240.663971,45.0721321 240.54713,44.9062283 C238.250447,41.6259258 235.965233,38.3382169 233.676435,35.0519893 C233.558877,34.883123 233.435585,34.7187005 233.229858,34.434294 L233.229858,45.2735867 L229.046512,45.2735867 L229.046512,27.189336 L230.859343,27.189336 C231.513797,27.189336 232.168251,27.2078521 232.821272,27.181189 Z M216.632776,26.0477674 C222.27901,26.0447058 226.783628,30.3646091 226.767398,35.7198801 C226.751894,41.0797459 222.192758,45.3460428 216.487125,45.3000946 C210.678966,45.2526147 206.190621,41.0215447 206.256531,35.5575295 C206.319999,30.3424008 210.60492,26.0508323 216.632776,26.0477674 Z M79.5300051,27.1814219 C79.5744774,27.1814219 79.6197034,27.2058178 79.7335223,27.239085 C77.3599086,29.8878928 75.0104154,32.5078689 72.6413243,35.1507625 C74.9960938,38.4900493 77.3403106,41.8160292 79.7674419,45.2573354 C78.5538762,45.2573354 77.488049,45.2625103 76.4222219,45.2558569 C75.8048863,45.2514212 75.0933298,45.4081467 74.5996121,45.1590124 C74.3142358,45.0152981 74.1083668,44.7177563 73.9147631,44.3982848 L73.7227575,44.0763885 C73.6584581,43.9699099 73.5930311,43.8658797 73.523986,43.769183 L70.0114296,38.8471172 L70.0114296,38.8471172 C69.9172086,38.7155269 69.8116812,38.5913294 69.685802,38.4309076 C69.2109285,38.9602256 68.7473615,39.4533193 68.3192216,39.9737661 C68.2204781,40.0942672 68.2129404,40.3093951 68.2114329,40.4809059 C68.2023877,41.8766494 68.204649,43.2731322 68.2038952,44.669615 L68.2038952,45.2285038 L63.8139535,45.2285038 L63.8139535,27.2058178 L68.1963575,27.2058178 L68.1963575,33.7424514 C69.1061549,32.7303895 69.9202237,31.8270004 70.7312775,30.9228721 C71.7714766,29.7636952 72.8063993,28.6000828 73.8563974,27.4512558 C73.9747389,27.3218834 74.1827787,27.1976858 74.3508689,27.195468 C76.0769964,27.1755077 77.8031238,27.1806826 79.5300051,27.1814219 Z M141.52051,27.193025 C145.704717,27.2508299 149.164107,29.9372749 150.12117,33.8479978 C151.17538,38.1500153 149.366752,42.3794061 145.654625,44.2891906 C144.409913,44.9287498 143.079437,45.2800257 141.675341,45.2926242 C139.39691,45.3118925 137.119238,45.2904009 134.841566,45.2837311 C134.726961,45.2837311 134.613116,45.2614985 134.465116,45.2459356 L134.465116,27.1856141 L136.204678,27.1856141 L136.204678,27.1856141 C137.976875,27.1870963 139.749072,27.1685691 141.52051,27.193025 Z M202.795511,29.3755107 C202.912294,29.5008572 203.016655,29.6361398 203.159943,29.8050519 C201.940752,30.6664273 200.747238,31.5094592 199.55041,32.3555484 C199.484978,32.307397 199.437768,32.2837035 199.406294,32.247781 C197.793683,30.4226129 195.715593,29.8447959 193.286324,30.5471952 C191.132862,31.1693421 189.637035,32.9562947 189.489606,35.159031 C189.356257,37.1569326 189.882199,38.9370065 191.696904,40.217987 C193.736894,41.6571794 197.975899,41.3789712 199.451848,38.7038925 C199.491604,38.6312832 199.52225,38.5548524 199.594308,38.4004621 L193.427127,38.4004621 L193.427127,34.2051743 L205.116279,34.2051743 C204.987071,35.2843775 204.93075,36.3322441 204.727,37.3556528 C204.187806,40.0605395 202.937142,42.4107873 200.299152,43.8828449 C194.406123,47.1716632 186.055664,44.6479175 184.754476,37.2486496 C183.836771,32.0238387 187.214392,27.4372251 192.706546,26.3213351 C196.69459,25.5119327 200.097887,26.4894829 202.795511,29.3755107 Z M61.1186299,27.5669651 C61.4217514,27.7609708 61.5407265,27.9855286 61.5346641,28.3529174 C61.51193,29.6246477 61.5263283,30.8963781 61.5263283,32.2842063 C61.2929248,32.0756884 61.1330282,31.9198728 60.9610068,31.7785694 C58.7929308,30.0088401 55.4411656,29.8652454 53.1882156,31.4379137 C50.8746413,33.0525911 50.2790077,37.5032655 52.8282589,39.6617699 C55.6753269,42.0715653 59.2764095,41.1450734 61.1747074,39.4356845 C61.261097,39.3577767 61.3452132,39.2768137 61.5240549,39.1087773 C61.5240549,40.5943722 61.5354219,41.9653968 61.508141,43.3348938 C61.5058676,43.488418 61.3156589,43.6778409 61.1656138,43.7832456 C59.5901402,44.8915223 57.816122,45.3391103 55.9163085,45.297865 C51.4861888,45.2016259 47.8252398,42.1746785 46.9514923,37.9042615 C45.9981754,33.2519435 48.0540965,28.7722447 52.1386577,26.9597425 C55.1873014,25.6070492 58.2321562,25.7185643 61.1186299,27.5669651 Z M6.73133585,27.2017089 C8.1317632,27.2306055 9.44862913,27.5744007 10.6037883,28.3783184 C12.874647,29.9594799 13.2584105,33.1069843 11.4262492,35.1371542 C11.2939436,35.2838599 11.1585432,35.4290838 11.022369,35.5787532 C11.4370812,35.9255122 11.8649466,36.2315195 12.2278198,36.596061 C14.7509101,39.127105 13.8557198,43.1437296 10.4583295,44.6011545 C9.38982666,45.060536 8.26716363,45.2820764 7.10504105,45.2909677 C4.83418235,45.3072683 2.56254993,45.2976361 0.292464937,45.2976361 C0.207356093,45.2976361 0.123020966,45.2835583 0,45.2717033 L0,27.1839264 L1.56987132,27.1839264 L1.56987132,27.1839264 C3.2906174,27.1868902 5.01136349,27.165403 6.73133585,27.2017089 Z M160.479799,26.0677294 C162.089762,26.0904959 163.554408,26.6164795 164.822493,27.6472505 C168.284869,30.4624407 168.039359,35.998615 164.347534,38.5037103 C164.209101,38.5979164 164.069902,38.6921224 163.895521,38.8090949 L165.329849,41.3615382 C166.047747,42.6391038 166.770051,43.9246393 167.511628,45.2449368 L165.789235,45.2449368 C165.142956,45.2449368 164.483674,45.1617215 163.853456,45.264563 C162.771224,45.4404143 162.20984,44.9623187 161.747884,44.0037723 C161.102369,42.6636916 160.29777,41.405256 159.584186,40.0989324 C159.427396,39.8123891 159.248426,39.7103326 158.938671,39.7228934 C158.365815,39.7448748 157.790664,39.7291738 157.158916,39.7291738 L157.158916,45.2158899 L152.697674,45.2158899 L152.697674,26.0842155 C152.832284,26.0708696 152.931712,26.0520284 153.032669,26.0520284 C155.514536,26.0535985 157.997932,26.0339722 160.479799,26.0677294 Z M138.905855,31.2593764 L138.905855,41.2218262 C139.846221,41.2218262 140.725109,41.2603628 141.599443,41.2144153 C143.742778,41.1010288 145.216699,39.9760568 145.741907,38.0521916 C146.1009,36.7352778 146.085721,35.4079886 145.634892,34.109602 C145.171161,32.7726787 144.236109,31.8781851 142.842638,31.4765153 C141.555423,31.1052301 140.23785,31.32311 138.905855,31.2593764 Z M4.53707511,37.9712418 L4.53707511,41.21655 C5.41524364,41.21655 6.23847828,41.2447056 7.05861805,41.2032131 C7.44238156,41.1846897 7.84394056,41.084663 8.19443426,40.9312889 C9.3364402,40.4326376 9.46410347,39.0033684 8.43119159,38.3261511 C8.17122275,38.1549944 7.84161941,38.0001384 7.53754872,37.9875425 C6.55105985,37.9445681 5.56147611,37.9712418 4.53707511,37.9712418 Z M211.074359,35.7129878 C211.091509,39.7863021 215.208809,42.2958435 219.00714,40.5498092 C221.174011,39.5542633 222.401878,37.0738225 221.909592,34.6293744 C221.510067,32.6413459 220.375776,31.1778935 218.287019,30.5346177 C214.54402,29.3813161 211.057334,31.904642 211.074359,35.7129878 Z M39.8964741,32.7711333 C39.2595649,34.5279785 38.6736684,36.144839 38.072018,37.8053984 L41.7246812,37.8053984 C41.12003,36.1411357 40.5341335,34.5272378 39.8964741,32.7711333 Z M177.778697,32.7725314 C177.138681,34.5378216 176.554939,36.1513146 175.957692,37.8018313 L179.610956,37.8018313 C179.003204,36.1350241 178.41421,34.5185692 177.778697,32.7725314 Z M157.181861,30.4169078 L157.181861,35.3721449 C158.373463,35.3721449 159.533707,35.4498649 160.679419,35.3517336 C161.957447,35.2418266 162.744455,34.247953 162.771989,32.936919 C162.798758,31.6172496 162.026282,30.5778431 160.714601,30.4420294 C159.557417,30.3227017 158.379582,30.4169078 157.181861,30.4169078 Z M4.53165909,31.2331522 L4.53165909,33.8545906 C5.38197382,33.8153209 6.1750335,33.8360672 6.94797655,33.7256674 C7.69229208,33.6189724 8.08069789,33.1240258 8.06754471,32.5194205 C8.05516524,31.928152 7.67604402,31.4583974 6.95184513,31.3591117 C6.16652262,31.2509347 5.36108346,31.2709401 4.53165909,31.2331522 Z M102.694255,14.405165 C101.407278,14.4497911 98.1353282,16.1062527 97.6061535,16.9730586 L97.9806529,17.0250367 C98.7928305,17.132674 99.6033401,17.1806584 100.283066,16.6372281 C101.127928,15.9625414 101.877403,15.1706166 102.694255,14.405165 Z" id="Combined-Shape"></path>
            </g>
        </g>
    </g>
</svg>